<?xml version="1.0" encoding="UTF-8"?>
<svg xmlns="http://www.w3.org/2000/svg" xmlns:xlink="http://www.w3.org/1999/xlink" viewBox="0 0 40 40" version="1.1" width="80px" height="80px">
<g id="surface1">
<path style=" fill:#B6DCFE;" d="M 19.5 37.5 C 18.339844 37.5 17.304688 36.84375 16.800781 35.785156 L 16.664063 35.5 L 2 35.5 C 1.171875 35.5 0.5 34.828125 0.5 34 L 0.5 28.5 L 38.5 28.5 L 38.5 34 C 38.5 34.828125 37.828125 35.5 37 35.5 L 22.335938 35.5 L 22.199219 35.785156 C 21.695313 36.84375 20.660156 37.5 19.5 37.5 Z "/>
<path style=" fill:#4788C7;" d="M 38 29 L 38 34 C 38 34.550781 37.550781 35 37 35 L 22.019531 35 L 21.746094 35.570313 C 21.324219 36.453125 20.464844 37 19.5 37 C 18.535156 37 17.675781 36.453125 17.253906 35.570313 L 16.980469 35 L 2 35 C 1.449219 35 1 34.550781 1 34 L 1 29 L 38 29 M 39 28 L 0 28 L 0 34 C 0 35.105469 0.894531 36 2 36 L 16.351563 36 C 16.914063 37.179688 18.105469 38 19.5 38 C 20.894531 38 22.085938 37.179688 22.648438 36 L 37 36 C 38.105469 36 39 35.105469 39 34 Z "/>
<path style=" fill:#FFFFFF;" d="M 19.449219 34.5 C 19.21875 33.359375 18.207031 32.5 17 32.5 L 0.5 32.5 L 0.5 3.5 L 16 3.5 C 17.929688 3.5 19.5 5.070313 19.5 7 L 19.5 34.5 Z "/>
<path style=" fill:#4788C7;" d="M 16 4 C 17.652344 4 19 5.347656 19 7 L 19 32.765625 C 18.46875 32.289063 17.769531 32 17 32 L 1 32 L 1 4 L 16 4 M 16 3 L 0 3 L 0 33 L 17 33 C 18.105469 33 19 33.894531 19 35 L 20 35 L 20 7 C 20 4.789063 18.210938 3 16 3 Z "/>
<path style=" fill:#FFFFFF;" d="M 19.5 34.5 L 19.5 7 C 19.5 5.070313 21.070313 3.5 23 3.5 L 38.5 3.5 L 38.5 32.5 L 22 32.5 C 20.792969 32.5 19.78125 33.359375 19.550781 34.5 Z "/>
<path style=" fill:#4788C7;" d="M 38 4 L 38 32 L 22 32 C 21.230469 32 20.53125 32.289063 20 32.765625 L 20 7 C 20 5.347656 21.347656 4 23 4 L 38 4 M 39 3 L 23 3 C 20.789063 3 19 4.789063 19 7 L 19 35 L 20 35 C 20 33.894531 20.894531 33 22 33 L 39 33 Z "/>
<path style=" fill:#DFF0FE;" d="M 26.050781 3.5 L 33.121094 3.5 L 33.121094 24.929688 L 29.585938 22.570313 L 26.050781 24.929688 Z "/>
<path style=" fill:#4788C7;" d="M 32.621094 4 L 32.621094 23.992188 L 30.140625 22.339844 L 29.585938 21.972656 L 29.03125 22.339844 L 26.550781 23.992188 L 26.550781 4 L 32.621094 4 M 33.621094 3 L 25.550781 3 L 25.550781 25.863281 L 29.585938 23.171875 L 33.621094 25.863281 Z "/>
</g>
</svg>
